<?xml version="1.0" standalone="no"?>
<!DOCTYPE svg PUBLIC "-//W3C//DTD SVG 20010904//EN"
 "http://www.w3.org/TR/2001/REC-SVG-20010904/DTD/svg10.dtd">
<svg version="1.0" xmlns="http://www.w3.org/2000/svg"
 width="215.000000pt" height="215.000000pt" viewBox="0 0 215.000000 215.000000"
 preserveAspectRatio="xMidYMid meet">
<metadata>
Created by potrace 1.11, written by Peter Selinger 2001-2013
</metadata>
<g transform="translate(0.000000,215.000000) scale(0.100000,-0.100000)"
fill="#000000" stroke="none">
<path d="M1018 1757 c-88 -81 -98 -135 -49 -265 16 -42 32 -85 35 -94 7 -22
46 -24 46 -2 0 8 -16 53 -35 100 -19 46 -35 98 -35 115 0 41 23 83 65 114 l34
27 35 -27 c36 -28 66 -79 66 -114 0 -12 -16 -62 -35 -111 -40 -103 -42 -120
-15 -120 13 0 22 9 26 28 4 15 20 57 36 94 49 116 33 187 -60 266 -28 23 -52
42 -54 42 -2 0 -29 -24 -60 -53z"/>
<path d="M719 1552 c-24 -22 -32 -38 -36 -76 -5 -44 -4 -49 11 -43 10 4 20 7
22 7 2 0 4 11 4 25 0 35 42 75 79 75 51 0 96 -52 125 -142 6 -19 46 -25 46 -8
0 35 -46 123 -80 154 -35 31 -47 36 -90 36 -40 0 -56 -5 -81 -28z"/>
<path d="M1275 1548 c-39 -34 -68 -84 -80 -136 -6 -31 -5 -33 16 -30 18 2 26
12 32 41 13 55 75 117 115 117 37 0 68 -27 78 -67 12 -49 44 -58 44 -13 0 71
-51 120 -124 120 -37 0 -52 -6 -81 -32z"/>
<path d="M840 1330 c0 -19 7 -20 235 -20 228 0 235 1 235 20 0 19 -7 20 -235
20 -228 0 -235 -1 -235 -20z"/>
<path d="M990 1234 c-11 -26 -20 -50 -20 -55 0 -15 53 -70 82 -85 27 -14 32
-13 63 6 19 12 44 35 56 51 l21 30 -20 47 c-14 31 -27 48 -41 50 -25 4 -26 -7
-6 -54 31 -75 -43 -122 -94 -60 -10 12 -9 23 2 58 8 24 13 46 10 51 -12 19
-34 3 -53 -39z"/>
<path d="M350 993 c-53 -20 -82 -89 -60 -144 14 -33 42 -51 110 -69 53 -14 70
-26 70 -50 0 -35 -57 -40 -115 -10 l-39 20 -26 -25 -25 -26 25 -19 c35 -28 97
-43 153 -37 67 6 110 48 110 106 0 56 -29 85 -109 111 -72 24 -93 42 -74 65
16 20 54 19 97 -2 35 -16 36 -16 54 8 24 31 21 40 -22 61 -33 17 -116 23 -149
11z"/>
<path d="M1490 831 c0 -148 2 -163 20 -181 12 -12 33 -20 54 -20 53 0 66 9 66
44 0 28 -3 32 -27 31 -28 0 -28 1 -31 68 l-3 67 31 0 c28 0 30 3 30 35 0 32
-2 35 -29 35 -27 0 -30 3 -33 38 -3 35 -5 37 -40 40 l-38 3 0 -160z"/>
<path d="M664 901 c-75 -34 -105 -138 -59 -208 40 -61 138 -82 203 -43 38 23
39 27 11 56 -20 21 -23 22 -45 8 -32 -22 -73 -14 -97 18 -26 35 -14 86 26 108
25 14 30 13 59 -3 30 -17 31 -17 55 5 29 27 26 36 -17 60 -44 23 -84 23 -136
-1z"/>
<path d="M940 902 c-104 -52 -107 -208 -6 -256 133 -63 268 60 207 188 -37 75
-127 106 -201 68z m109 -69 c32 -27 37 -73 11 -106 -43 -54 -120 -23 -120 48
0 64 62 97 109 58z"/>
<path d="M1733 906 c-35 -16 -53 -43 -53 -79 0 -36 28 -64 85 -84 52 -19 67
-46 28 -51 -12 -2 -38 4 -58 14 -34 16 -36 16 -50 -2 -23 -30 -18 -41 25 -58
115 -46 210 14 174 109 -4 10 -36 30 -71 46 -64 29 -75 49 -27 49 14 0 35 -5
46 -11 18 -9 24 -8 35 7 7 10 13 24 13 31 0 31 -98 51 -147 29z"/>
<path d="M1190 796 c0 -106 1 -115 25 -140 28 -30 87 -36 122 -11 19 13 22 13
27 0 3 -9 19 -15 41 -15 l35 0 0 140 0 140 -40 0 -40 0 0 -89 c0 -91 -11 -121
-45 -121 -34 0 -45 30 -45 121 l0 89 -40 0 -40 0 0 -114z"/>
<path d="M140 425 l0 -65 46 0 c50 0 59 22 11 28 -25 3 -27 7 -27 53 0 37 -4
49 -15 49 -12 0 -15 -14 -15 -65z"/>
<path d="M490 425 c0 -50 3 -65 14 -65 10 0 16 13 18 38 2 20 8 37 13 37 6 0
11 -17 13 -37 4 -53 32 -52 32 1 0 41 -20 67 -45 57 -10 -4 -15 1 -15 14 0 11
-7 20 -15 20 -12 0 -15 -14 -15 -65z"/>
<path d="M990 470 c0 -11 -7 -20 -15 -20 -8 0 -15 7 -15 15 0 8 -7 15 -15 15
-8 0 -15 -7 -15 -15 0 -15 -16 -19 -52 -16 -15 2 -18 -6 -18 -43 0 -34 4 -46
15 -46 10 0 15 10 15 29 0 20 6 30 20 34 16 4 20 0 20 -17 0 -31 19 -46 56
-46 31 0 33 3 36 38 2 25 8 37 18 37 10 0 16 -12 18 -37 4 -53 32 -52 32 1 0
43 -19 66 -50 58 -15 -4 -20 0 -20 14 0 10 -7 19 -15 19 -8 0 -15 -9 -15 -20z
m0 -65 c0 -16 -6 -25 -15 -25 -9 0 -15 9 -15 25 0 16 6 25 15 25 9 0 15 -9 15
-25z"/>
<path d="M1190 425 l0 -65 44 0 c52 0 64 12 64 65 -1 54 -13 65 -64 65 l-44 0
0 -65z m75 30 c0 -5 -10 -11 -22 -13 -16 -2 -23 2 -23 13 0 11 7 15 23 13 12
-2 22 -7 22 -13z m3 -52 c-2 -10 -13 -19 -26 -21 -17 -3 -22 2 -22 17 0 16 6
21 26 21 19 0 25 -5 22 -17z"/>
<path d="M1410 425 c0 -51 3 -65 15 -65 12 0 15 14 15 65 0 51 -3 65 -15 65
-12 0 -15 -14 -15 -65z"/>
<path d="M1520 471 c0 -14 -6 -17 -25 -14 -33 7 -54 -34 -37 -71 9 -21 18 -25
52 -24 l40 0 0 64 c0 50 -3 64 -15 64 -8 0 -15 -8 -15 -19z m-5 -61 c0 -27
-22 -39 -31 -16 -8 22 3 49 19 43 6 -2 12 -14 12 -27z"/>
<path d="M1760 425 c0 -51 3 -65 15 -65 9 0 15 9 15 22 l0 22 16 -22 c8 -12
25 -22 36 -22 l21 0 -21 23 c-20 21 -21 25 -6 45 19 27 0 31 -28 5 -17 -15
-18 -14 -18 20 0 26 -4 37 -15 37 -12 0 -15 -14 -15 -65z"/>
<path d="M1921 471 c-6 -10 -7 -21 -4 -25 4 -3 0 -17 -7 -31 -20 -38 0 -54 65
-52 41 1 52 4 44 13 -5 7 -7 24 -3 38 7 28 -12 38 -22 11 -4 -8 -10 -12 -15
-9 -5 2 -3 13 3 23 6 10 8 26 5 35 -9 22 -54 20 -66 -3z m49 -11 c0 -5 -7 -10
-15 -10 -8 0 -15 5 -15 10 0 6 7 10 15 10 8 0 15 -4 15 -10z m-10 -74 c-13
-13 -35 7 -25 24 5 8 11 8 21 -1 10 -8 12 -15 4 -23z"/>
<path d="M340 466 c0 -8 -6 -17 -12 -19 -10 -4 -10 -8 -2 -14 7 -4 14 -19 15
-32 4 -27 34 -50 46 -37 4 5 2 11 -4 13 -7 3 -13 15 -13 28 0 13 6 26 13 29
10 5 10 7 0 12 -7 3 -13 12 -13 20 0 8 -7 14 -15 14 -8 0 -15 -6 -15 -14z"/>
<path d="M246 444 c-21 -20 -20 -48 0 -69 17 -17 72 -17 65 0 -2 6 -12 9 -22
7 -9 -2 -20 2 -24 8 -4 6 6 10 24 10 33 0 37 9 21 41 -13 23 -43 25 -64 3z
m44 -14 c0 -5 -7 -10 -16 -10 -8 0 -12 5 -9 10 3 6 10 10 16 10 5 0 9 -4 9
-10z"/>
<path d="M411 441 c-24 -45 -3 -86 40 -79 31 4 38 29 7 26 -19 -3 -23 2 -23
22 0 20 4 25 23 22 15 -1 22 2 20 10 -8 22 -55 21 -67 -1z"/>
<path d="M762 448 c-15 -15 -15 -61 0 -76 28 -28 88 -2 88 38 0 40 -60 66 -88
38z m53 -38 c0 -13 -6 -25 -12 -27 -16 -6 -27 21 -19 43 9 23 31 11 31 -16z"/>
<path d="M1327 453 c-14 -13 -6 -24 12 -18 32 10 33 -12 1 -24 -49 -17 -32
-48 28 -49 30 -1 32 1 32 37 0 20 -5 42 -12 49 -13 13 -50 16 -61 5z m38 -63
c-3 -5 -10 -10 -16 -10 -5 0 -9 5 -9 10 0 6 7 10 16 10 8 0 12 -4 9 -10z"/>
<path d="M1576 444 c-32 -31 -8 -84 38 -84 29 0 46 18 46 50 0 14 -5 31 -12
38 -17 17 -54 15 -72 -4z m49 -34 c0 -13 -6 -25 -12 -27 -16 -6 -27 21 -19 43
9 23 31 11 31 -16z"/>
<path d="M1686 445 c-34 -35 -11 -90 35 -83 30 4 36 25 7 24 -18 -1 -23 4 -23
24 0 20 4 25 23 22 15 -1 22 2 20 10 -7 20 -44 21 -62 3z"/>
<path d="M590 441 c0 -5 7 -25 15 -45 17 -41 39 -47 49 -13 l7 22 11 -22 c6
-13 16 -23 23 -23 11 0 45 61 45 80 0 20 -20 9 -34 -17 l-14 -28 -7 28 c-9 34
-33 35 -41 1 l-7 -27 -14 27 c-13 25 -33 36 -33 17z"/>
<path d="M1100 381 c0 -20 13 -41 21 -35 15 9 10 44 -6 44 -8 0 -15 -4 -15 -9z"/>
<path d="M771 238 c-16 -37 -24 -65 -18 -67 6 -2 16 4 22 13 16 21 75 22 75 0
0 -12 10 -14 53 -12 48 3 52 5 52 28 0 18 -6 26 -22 28 -13 2 -23 8 -23 13 0
6 9 9 20 7 10 -2 19 2 20 7 1 17 -46 17 -60 1 -10 -13 -10 -19 0 -31 7 -8 19
-15 26 -15 8 0 14 -4 14 -10 0 -5 -12 -9 -26 -8 -21 2 -32 13 -52 55 -15 29
-32 53 -40 53 -7 0 -26 -28 -41 -62z m59 -10 c0 -5 -7 -8 -15 -8 -15 0 -20 21
-8 33 7 7 23 -11 23 -25z"/>
<path d="M980 235 c0 -50 3 -65 14 -65 10 0 16 13 18 38 2 20 8 37 13 37 6 0
11 -17 13 -37 4 -53 32 -52 32 1 0 41 -20 67 -45 57 -10 -4 -15 1 -15 14 0 11
-7 20 -15 20 -12 0 -15 -14 -15 -65z"/>
<path d="M1330 235 c0 -51 3 -65 15 -65 12 0 15 14 15 65 0 51 -3 65 -15 65
-12 0 -15 -14 -15 -65z"/>
<path d="M1380 235 c0 -51 3 -65 15 -65 12 0 15 14 15 65 0 51 -3 65 -15 65
-12 0 -15 -14 -15 -65z"/>
<path d="M1246 254 c-21 -20 -20 -48 0 -69 17 -17 72 -17 65 0 -2 6 -12 9 -22
7 -9 -2 -20 2 -24 8 -4 6 6 10 24 10 33 0 37 9 21 41 -13 23 -43 25 -64 3z
m44 -14 c0 -5 -7 -10 -16 -10 -8 0 -12 5 -9 10 3 6 10 10 16 10 5 0 9 -4 9
-10z"/>
<path d="M1085 223 c9 -21 20 -42 25 -47 11 -11 30 1 30 20 0 21 18 17 25 -6
9 -29 31 -25 43 8 5 15 13 35 17 45 5 12 2 17 -8 17 -8 0 -18 -12 -22 -27 l-7
-28 -14 28 c-17 32 -30 35 -39 7 -3 -11 -10 -20 -15 -20 -4 0 -10 9 -13 20 -3
11 -12 20 -21 20 -15 0 -15 -3 -1 -37z"/>
</g>
</svg>
